<svg width="67" height="67" viewBox="0 0 67 67" fill="none" xmlns="http://www.w3.org/2000/svg">
<path d="M33.09 2.48242C33.0442 2.48222 32.9981 2.48145 32.9523 2.48145C16.124 2.48158 2.48175 16.1239 2.48159 32.9521C2.48159 49.7806 16.1239 63.4227 32.9523 63.4229C49.735 63.4229 63.347 49.8551 63.421 33.0898H66.1808C66.1808 39.6345 64.2397 46.0329 60.6037 51.4746C56.9677 56.916 51.8003 61.1576 45.7541 63.6621C39.7076 66.1666 33.0538 66.8217 26.6349 65.5449C20.216 64.2681 14.3203 61.116 9.69253 56.4883C5.06476 51.8605 1.91268 45.9648 0.635886 39.5459C-0.6409 33.127 0.0141757 26.4732 2.5187 20.4268C5.02318 14.3806 9.26479 9.21309 14.7062 5.57715C20.1477 1.94123 26.5455 9.50188e-05 33.09 0V2.48242Z" fill="#4CBAFF"/>
<circle cx="32.9525" cy="32.9522" r="22.7496" fill="#4CBAFF"/>
<path d="M34.436 43.0926C32.665 43.0926 31.7795 41.9653 31.7795 39.7105C31.7795 38.6807 31.9667 37.3934 32.3412 35.8486C30.0943 39.1254 27.8044 41.2787 25.4717 42.3086C24.6447 42.6752 23.8099 42.8586 22.9673 42.8586C21.9687 42.8586 21.3055 42.4217 20.9778 41.5479C20.8764 41.2904 20.8257 40.9393 20.8257 40.4946C20.8257 40.0499 20.9037 39.5077 21.0598 38.868C21.2158 38.2204 21.4186 37.5689 21.6683 36.9136C21.9258 36.2504 22.2144 35.5873 22.5343 34.9241C22.862 34.2532 23.1936 33.6017 23.529 32.9698C23.8723 32.33 24.2039 31.7137 24.5238 31.1207C25.6316 29.0689 26.1856 27.6997 26.1856 27.0131C26.1856 26.3187 25.7643 25.9715 24.9217 25.9715C23.9776 25.9715 22.9985 26.467 21.9843 27.4578C21.7346 27.7075 21.5396 27.9298 21.3991 28.1248C20.9388 27.883 20.7087 27.6333 20.7087 27.3759C20.7087 27.1184 20.7789 26.8805 20.9193 26.662C21.0676 26.4358 21.2626 26.2212 21.5045 26.0184C21.7541 25.8077 22.035 25.6127 22.3471 25.4332C22.6669 25.2538 22.9985 25.0938 23.3418 24.9534C24.0674 24.6647 24.7188 24.5204 25.2961 24.5204C25.3196 24.5204 25.3391 24.5204 25.3547 24.5204C26.7824 24.5204 27.7264 25.0353 28.1867 26.0652C28.413 26.5567 28.5261 27.1223 28.5261 27.7621C28.5261 28.4018 28.4676 29.0533 28.3506 29.7164C28.2413 30.3796 28.0892 31.0622 27.8942 31.7644C27.7069 32.4588 27.5236 33.1141 27.3441 33.7305C26.8838 35.2752 26.6537 36.1919 26.6537 36.4806C26.6537 37.0969 26.8838 37.4051 27.3441 37.4051C28.0073 37.4051 28.9591 36.7498 30.1996 35.4391C31.5337 34.0191 32.8132 32.2286 34.0381 30.0675C34.3111 29.4043 34.6349 28.5813 35.0094 27.5982C35.3917 26.6074 35.6375 25.9794 35.7467 25.7141C35.8559 25.441 35.9885 25.2304 36.1446 25.0821C36.3006 24.9339 36.4644 24.8208 36.6361 24.7428C36.9092 24.6023 37.19 24.5321 37.4787 24.5321C37.7674 24.5321 37.939 24.6257 37.9936 24.813C38.0482 25.0002 38.0443 25.2304 37.9819 25.5034C37.8571 26.0418 37.6074 26.6308 37.2329 27.2706C36.523 30.2196 36.168 32.8879 36.168 35.2752C36.168 37.1711 36.4449 38.119 36.9989 38.119C37.9663 38.119 39.1093 37.2803 40.4278 35.6029C41.6995 33.9879 42.6942 32.1623 43.412 30.126C43.9113 28.7217 44.1609 27.5124 44.1609 26.4982C44.1609 25.4761 43.962 24.6921 43.5641 24.1459C43.884 23.8729 44.1765 23.7363 44.4418 23.7363C44.7149 23.7363 44.9411 23.8026 45.1206 23.9353C45.3078 24.0601 45.4599 24.2278 45.577 24.4385C45.8032 24.8364 45.9163 25.363 45.9163 26.0184C45.9163 26.6737 45.8227 27.4461 45.6355 28.3355C45.4482 29.2249 45.183 30.1416 44.8397 31.0856C44.5042 32.0297 44.1024 32.9854 43.6343 33.9528C43.174 34.9124 42.663 35.8369 42.1013 36.7264C41.5473 37.6158 40.9544 38.4467 40.3224 39.219C39.6983 39.9914 39.0547 40.6663 38.3915 41.2436C36.9716 42.4763 35.6531 43.0926 34.436 43.0926Z" fill="white"/>
</svg>
